<?xml version="1.0" encoding="UTF-8"?>
<svg id="svg390" xmlns="http://www.w3.org/2000/svg" version="1.1" xmlns:svg="http://www.w3.org/2000/svg" viewBox="0 0 682.67 682.67">
  <!-- Generator: Adobe Illustrator 29.8.1, SVG Export Plug-In . SVG Version: 2.1.1 Build 2)  -->
  <defs>
    <style>
      .st0 {
        fill: #0a0a0c;
      }

      .st1 {
        fill: #fff;
      }
    </style>
  </defs>
  <path class="st0" d="M197.13,297.4l-33.76,93.89c-1.27,3.51-4.63,5.87-8.36,5.87-1.01,0-2.03-.18-3-.52-4.61-1.66-7.01-6.76-5.36-11.37l29.49-82h-29.62c-4.9,0-8.88-3.98-8.88-8.88s3.98-8.88,8.88-8.88h42.25c2.89,0,5.6,1.41,7.27,3.77,1.66,2.36,2.06,5.4,1.09,8.12Z"/>
  <path class="st0" d="M218.84,431.04h-110.38v-179.4h110.38v-8.89c0-3.26.92-6.3,2.53-8.88h-121.79c-4.9,0-8.88,3.98-8.88,8.88v197.16c0,4.9,3.98,8.88,8.88,8.88h121.79c-1.61-2.58-2.53-5.62-2.53-8.88v-8.87Z"/>
  <path class="st0" d="M333.26,297.4l-33.76,93.89c-1.27,3.51-4.63,5.87-8.36,5.87-1.01,0-2.03-.18-3-.52-4.61-1.66-7.01-6.76-5.36-11.37l29.49-82h-29.62c-4.9,0-8.88-3.98-8.88-8.88s3.98-8.88,8.88-8.88h42.25c2.89,0,5.6,1.41,7.27,3.77,1.66,2.36,2.06,5.4,1.09,8.12Z"/>
  <g>
    <path class="st0" d="M380.72,251.64v179.4h.01v-179.4h-.01Z"/>
    <path class="st0" d="M354.97,439.91c0,3.26.92,6.3,2.53,8.88h-121.79c-4.9-.01-8.87-3.98-8.87-8.88v-197.16c0-4.9,3.97-8.87,8.87-8.88h121.79c-1.61,2.58-2.53,5.62-2.53,8.88v8.89h-110.38v179.4h110.38v8.87Z"/>
  </g>
  <path class="st0" d="M469.4,297.4l-33.76,93.88c-1.27,3.52-4.63,5.88-8.36,5.88-1.01,0-2.03-.18-3-.52-4.61-1.66-7.01-6.76-5.36-11.37l29.49-82h-29.62c-4.9,0-8.88-3.98-8.88-8.88s3.98-8.88,8.88-8.88h42.25c2.88,0,5.6,1.41,7.27,3.78,1.66,2.35,2.07,5.38,1.09,8.11Z"/>
  <g>
    <path class="st0" d="M380.72,251.64v179.4h.01v-179.4h-.01Z"/>
    <path class="st0" d="M507.98,233.87h-136.13c-4.9,0-8.88,3.98-8.88,8.88v197.16c0,4.9,3.98,8.88,8.88,8.88h136.13c4.9,0,8.88-3.98,8.88-8.88v-197.16c0-4.9-3.98-8.88-8.88-8.88ZM499.1,431.04h-118.38v-179.4h118.38v179.4Z"/>
    <path class="st1" d="M380.72,251.64v179.4h.01v-179.4h-.01ZM380.72,251.64v179.4h.01v-179.4h-.01ZM380.72,251.64v179.4h.01v-179.4h-.01ZM380.72,251.64v179.4h.01v-179.4h-.01ZM380.72,251.64v179.4h.01v-179.4h-.01ZM380.72,251.64v179.4h.01v-179.4h-.01ZM380.72,251.64v179.4h.01v-179.4h-.01ZM380.72,251.64v179.4h.01v-179.4h-.01ZM380.72,251.64v179.4h.01v-179.4h-.01ZM380.72,251.64v179.4h.01v-179.4h-.01ZM380.72,251.64v179.4h.01v-179.4h-.01ZM380.72,251.64v179.4h.01v-179.4h-.01ZM380.72,251.64v179.4h.01v-179.4h-.01ZM380.72,251.64v179.4h.01v-179.4h-.01ZM380.72,251.64v179.4h.01v-179.4h-.01ZM380.72,251.64v179.4h.01v-179.4h-.01ZM380.72,251.64v179.4h.01v-179.4h-.01ZM380.72,251.64v179.4h.01v-179.4h-.01ZM380.72,251.64v179.4h.01v-179.4h-.01ZM380.72,251.64v179.4h.01v-179.4h-.01ZM380.72,251.64v179.4h.01v-179.4h-.01ZM380.72,251.64v179.4h.01v-179.4h-.01ZM380.72,251.64v179.4h.01v-179.4h-.01ZM380.72,251.64v179.4h.01v-179.4h-.01ZM380.72,251.64v179.4h.01v-179.4h-.01ZM380.72,251.64v179.4h.01v-179.4h-.01ZM380.72,251.64v179.4h.01v-179.4h-.01ZM380.72,251.64v179.4h.01v-179.4h-.01ZM380.72,251.64v179.4h.01v-179.4h-.01ZM380.72,251.64v179.4h.01v-179.4h-.01ZM380.72,251.64v179.4h.01v-179.4h-.01ZM380.72,251.64v179.4h.01v-179.4h-.01ZM380.72,251.64v179.4h.01v-179.4h-.01ZM380.72,251.64v179.4h.01v-179.4h-.01ZM380.72,251.64v179.4h.01v-179.4h-.01ZM380.72,251.64v179.4h.01v-179.4h-.01ZM380.72,251.64v179.4h.01v-179.4h-.01ZM380.72,251.64v179.4h.01v-179.4h-.01ZM380.72,251.64v179.4h.01v-179.4h-.01ZM380.72,251.64v179.4h.01v-179.4h-.01ZM380.72,251.64v179.4h.01v-179.4h-.01ZM380.72,251.64v179.4h.01v-179.4h-.01ZM380.72,251.64v179.4h.01v-179.4h-.01ZM380.72,251.64v179.4h.01v-179.4h-.01ZM380.72,251.64v179.4h.01v-179.4h-.01ZM380.72,251.64v179.4h.01v-179.4h-.01ZM380.72,251.64v179.4h.01v-179.4h-.01ZM380.72,251.64v179.4h.01v-179.4h-.01ZM380.72,251.64v179.4h.01v-179.4h-.01ZM380.72,251.64v179.4h.01v-179.4h-.01ZM380.72,251.64v179.4h.01v-179.4h-.01ZM380.72,251.64v179.4h.01v-179.4h-.01ZM380.72,251.64v179.4h.01v-179.4h-.01ZM380.72,251.64v179.4h.01v-179.4h-.01ZM380.72,251.64v179.4h.01v-179.4h-.01ZM380.72,251.64v179.4h.01v-179.4h-.01ZM380.72,251.64v179.4h.01v-179.4h-.01ZM380.72,251.64v179.4h.01v-179.4h-.01ZM380.72,251.64v179.4h.01v-179.4h-.01ZM380.72,251.64v179.4h.01v-179.4h-.01ZM380.72,251.64v179.4h.01v-179.4h-.01Z"/>
  </g>
  <g>
    <path class="st0" d="M506.52,178.93h-19.37c-32.61-71.02-103.86-117.42-183.36-117.42s-150.75,46.4-183.36,117.42h-19.38c33.83-81.44,113.5-135.17,202.73-135.17s168.9,53.73,202.74,135.17Z"/>
    <path class="st0" d="M493.62,204.18c.15.18.31.35.47.51-.09-.08-.17-.17-.25-.26-.08-.08-.15-.16-.22-.25Z"/>
    <path class="st1" d="M493.62,204.18c.07.09.14.17.22.25.08.09.16.18.25.26-.16-.16-.32-.33-.47-.51ZM493.62,204.18c.07.09.14.17.22.25.08.09.16.18.25.26-.16-.16-.32-.33-.47-.51ZM493.62,204.18c.07.09.14.17.22.25.08.09.16.18.25.26-.16-.16-.32-.33-.47-.51ZM493.62,204.18c.07.09.14.17.22.25.08.09.16.18.25.26-.16-.16-.32-.33-.47-.51ZM493.62,204.18c.07.09.14.17.22.25.08.09.16.18.25.26-.16-.16-.32-.33-.47-.51ZM493.62,204.18c.07.09.14.17.22.25.08.09.16.18.25.26-.16-.16-.32-.33-.47-.51ZM493.62,204.18c.07.09.14.17.22.25.08.09.16.18.25.26-.16-.16-.32-.33-.47-.51ZM493.62,204.18c.07.09.14.17.22.25.08.09.16.18.25.26-.16-.16-.32-.33-.47-.51ZM493.62,204.18c.07.09.14.17.22.25.08.09.16.18.25.26-.16-.16-.32-.33-.47-.51ZM493.62,204.18c.07.09.14.17.22.25.08.09.16.18.25.26-.16-.16-.32-.33-.47-.51ZM493.62,204.18c.07.09.14.17.22.25.08.09.16.18.25.26-.16-.16-.32-.33-.47-.51Z"/>
  </g>
  <path class="st0" d="M601.86,125.85c3.04,0,6.01-.3,8.89-.88v179.77c0,22.89-16.94,41.9-38.94,45.14v-18.1c12.15-2.99,21.18-13.99,21.18-27.05V124.97c2.87.58,5.83.88,8.87.88Z"/>
  <path class="st0" d="M601.86,43.77c-20.42,0-37.04,16.62-37.04,37.04,0,14.41,8.27,26.92,20.31,33.04,1.25.64,2.54,1.2,3.87,1.7,1.3.48,2.63.89,3.99,1.22,2.84.71,5.81,1.08,8.87,1.08s6.04-.37,8.89-1.08c1.36-.34,2.69-.75,3.99-1.23,1.33-.5,2.62-1.06,3.87-1.7,12.03-6.12,20.29-18.63,20.29-33.03,0-20.42-16.62-37.04-37.04-37.04ZM606,99.64c-1.33.3-2.72.45-4.14.45s-2.8-.15-4.13-.45c-8.66-1.89-15.16-9.62-15.16-18.84,0-10.64,8.65-19.29,19.29-19.29s19.29,8.65,19.29,19.29c0,9.22-6.49,16.94-15.15,18.84Z"/>
  <g>
    <path class="st0" d="M259.85,195.81c0,4.9-3.98,8.88-8.88,8.88H61.52v273.29h23.72c-1.61,2.58-2.54,5.62-2.54,8.88v8.87h-30.06c-4.9,0-8.88-3.98-8.88-8.88V195.81c0-4.9,3.98-8.88,8.88-8.88h198.33c4.9,0,8.88,3.98,8.88,8.88Z"/>
    <path class="st0" d="M563.81,195.81v291.04c0,4.9-3.98,8.88-8.88,8.88h-30.07v-8.87c0-3.26-.93-6.3-2.54-8.88h23.73V204.69h-51.96c-.16-.16-.32-.33-.47-.51.07.09.14.17.22.25.08.09.16.18.25.26h-137.49c-4.9,0-8.88-3.98-8.88-8.88s3.98-8.88,8.88-8.88h198.33c4.9,0,8.88,3.98,8.88,8.88Z"/>
    <path class="st0" d="M493.62,204.18c.15.18.31.35.47.51-.09-.08-.17-.17-.25-.26-.08-.08-.15-.16-.22-.25Z"/>
  </g>
  <path class="st0" d="M507.98,477.98H99.58c-4.9,0-8.88,3.98-8.88,8.88v143.17c0,4.9,3.98,8.88,8.88,8.88h408.4c4.9,0,8.88-3.98,8.88-8.88v-143.17c0-4.9-3.98-8.88-8.88-8.88ZM499.1,621.15H108.46v-125.42h390.64v125.42Z"/>
  <path class="st0" d="M443.71,558.44c0,4.9-3.98,8.88-8.88,8.88H172.73c-4.9,0-8.88-3.98-8.88-8.88s3.98-8.88,8.88-8.88h262.1c4.9,0,8.88,3.98,8.88,8.88Z"/>
  <path class="st0" d="M312.65,195.81c0,.29-.02.6-.05.89-.03.3-.08.59-.14.87-.1.54-.27,1.1-.5,1.66-.23.56-.49,1.06-.82,1.54-.17.26-.31.45-.43.58l-.08.1c-.18.22-.37.44-.58.65s-.42.4-.59.54c-.24.19-.48.38-.74.55-.51.33-1.03.61-1.6.84-.48.21-1.01.37-1.66.5-.24.05-.5.09-.8.12-.58.05-1.18.05-1.77,0-.29-.03-.58-.08-.86-.14-.54-.1-1.1-.27-1.64-.49-.58-.24-1.09-.51-1.56-.83-.22-.15-.45-.31-.68-.51-.26-.21-.45-.38-.64-.58-.21-.21-.41-.43-.58-.64-.19-.23-.37-.48-.51-.69-.35-.53-.63-1.05-.84-1.56-.22-.54-.39-1.08-.51-1.71-.05-.24-.08-.54-.12-.89-.03-.24-.04-.5-.04-.8s.01-.55.05-.89c.03-.29.07-.58.13-.87.09-.5.27-1.07.49-1.64.23-.54.51-1.06.84-1.55.22-.33.37-.53.5-.68.18-.22.38-.44.58-.65.21-.2.43-.4.64-.58.24-.18.49-.37.74-.54.48-.31.99-.58,1.49-.79.56-.23,1.11-.4,1.75-.52.28-.07.57-.09.82-.12.55-.06,1.12-.06,1.63-.01.33.04.65.09.97.15.5.1,1.06.27,1.64.5.56.23,1.06.49,1.52.81.25.17.49.34.71.52.24.2.47.41.64.58.21.2.4.43.62.7.18.21.37.48.47.63.32.49.6,1.02.84,1.58.21.5.37,1.04.5,1.71.05.22.09.48.12.77.03.29.05.6.05.89Z"/>
</svg>