<?xml version="1.0" encoding="UTF-8"?>
<svg id="Icons" xmlns="http://www.w3.org/2000/svg" version="1.1" viewBox="0 0 512 512">
  <!-- Generator: Adobe Illustrator 29.8.1, SVG Export Plug-In . SVG Version: 2.1.1 Build 2)  -->
  <defs>
    <style>
      .st0 {
        fill: #0a0a0c;
      }
    </style>
  </defs>
  <g id="Happy">
    <path class="st0" d="M179.2,168.84c-14.18,0-25.72,11.54-25.72,25.72s11.54,25.72,25.72,25.72,25.72-11.54,25.72-25.72-11.54-25.72-25.72-25.72ZM332.8,168.84c-14.18,0-25.72,11.54-25.72,25.72s11.54,25.72,25.72,25.72,25.72-11.54,25.72-25.72-11.54-25.72-25.72-25.72ZM383.56,292.89c-5.05-2.54-11.31-.52-13.92,4.53-.82,1.56-8.43,15.52-26.14,29.01-22.96,17.49-53.22,26.73-87.49,26.73s-64.52-9.21-87.44-26.63c-17.7-13.46-25.36-27.52-26.17-29.07-1.27-2.53-3.4-4.36-6.02-5.23-1.06-.35-2.16-.52-3.24-.52-1.59,0-3.17.37-4.63,1.1-2.49,1.25-4.33,3.37-5.21,6-.87,2.63-.67,5.44.56,7.92,1.37,2.74,34.71,67.16,132.15,67.16s128.02-59.39,131.83-66.55l.31-.62c2.52-5.05.46-11.25-4.59-13.83ZM383.56,292.89c-5.05-2.54-11.31-.52-13.92,4.53-.82,1.56-8.43,15.52-26.14,29.01-22.96,17.49-53.22,26.73-87.49,26.73s-64.52-9.21-87.44-26.63c-17.7-13.46-25.36-27.52-26.17-29.07-1.27-2.53-3.4-4.36-6.02-5.23-1.06-.35-2.16-.52-3.24-.52-1.59,0-3.17.37-4.63,1.1-2.49,1.25-4.33,3.37-5.21,6-.87,2.63-.67,5.44.56,7.92,1.37,2.74,34.71,67.16,132.15,67.16s128.02-59.39,131.83-66.55l.31-.62c2.52-5.05.46-11.25-4.59-13.83ZM332.8,168.84c-14.18,0-25.72,11.54-25.72,25.72s11.54,25.72,25.72,25.72,25.72-11.54,25.72-25.72-11.54-25.72-25.72-25.72ZM179.2,168.84c-14.18,0-25.72,11.54-25.72,25.72s11.54,25.72,25.72,25.72,25.72-11.54,25.72-25.72-11.54-25.72-25.72-25.72ZM179.2,168.84c-14.18,0-25.72,11.54-25.72,25.72s11.54,25.72,25.72,25.72,25.72-11.54,25.72-25.72-11.54-25.72-25.72-25.72ZM332.8,168.84c-14.18,0-25.72,11.54-25.72,25.72s11.54,25.72,25.72,25.72,25.72-11.54,25.72-25.72-11.54-25.72-25.72-25.72ZM383.56,292.89c-5.05-2.54-11.31-.52-13.92,4.53-.82,1.56-8.43,15.52-26.14,29.01-22.96,17.49-53.22,26.73-87.49,26.73s-64.52-9.21-87.44-26.63c-17.7-13.46-25.36-27.52-26.17-29.07-1.27-2.53-3.4-4.36-6.02-5.23-1.06-.35-2.16-.52-3.24-.52-1.59,0-3.17.37-4.63,1.1-2.49,1.25-4.33,3.37-5.21,6-.87,2.63-.67,5.44.56,7.92,1.37,2.74,34.71,67.16,132.15,67.16s128.02-59.39,131.83-66.55l.31-.62c2.52-5.05.46-11.25-4.59-13.83ZM383.56,292.89c-5.05-2.54-11.31-.52-13.92,4.53-.82,1.56-8.43,15.52-26.14,29.01-22.96,17.49-53.22,26.73-87.49,26.73s-64.52-9.21-87.44-26.63c-17.7-13.46-25.36-27.52-26.17-29.07-1.27-2.53-3.4-4.36-6.02-5.23-1.06-.35-2.16-.52-3.24-.52-1.59,0-3.17.37-4.63,1.1-2.49,1.25-4.33,3.37-5.21,6-.87,2.63-.67,5.44.56,7.92,1.37,2.74,34.71,67.16,132.15,67.16s128.02-59.39,131.83-66.55l.31-.62c2.52-5.05.46-11.25-4.59-13.83ZM332.8,168.84c-14.18,0-25.72,11.54-25.72,25.72s11.54,25.72,25.72,25.72,25.72-11.54,25.72-25.72-11.54-25.72-25.72-25.72ZM179.2,168.84c-14.18,0-25.72,11.54-25.72,25.72s11.54,25.72,25.72,25.72,25.72-11.54,25.72-25.72-11.54-25.72-25.72-25.72ZM179.2,168.84c-14.18,0-25.72,11.54-25.72,25.72s11.54,25.72,25.72,25.72,25.72-11.54,25.72-25.72-11.54-25.72-25.72-25.72ZM332.8,168.84c-14.18,0-25.72,11.54-25.72,25.72s11.54,25.72,25.72,25.72,25.72-11.54,25.72-25.72-11.54-25.72-25.72-25.72ZM383.56,292.89c-5.05-2.54-11.31-.52-13.92,4.53-.82,1.56-8.43,15.52-26.14,29.01-22.96,17.49-53.22,26.73-87.49,26.73s-64.52-9.21-87.44-26.63c-17.7-13.46-25.36-27.52-26.17-29.07-1.27-2.53-3.4-4.36-6.02-5.23-1.06-.35-2.16-.52-3.24-.52-1.59,0-3.17.37-4.63,1.1-2.49,1.25-4.33,3.37-5.21,6-.87,2.63-.67,5.44.56,7.92,1.37,2.74,34.71,67.16,132.15,67.16s128.02-59.39,131.83-66.55l.31-.62c2.52-5.05.46-11.25-4.59-13.83ZM383.56,292.89c-5.05-2.54-11.31-.52-13.92,4.53-.82,1.56-8.43,15.52-26.14,29.01-22.96,17.49-53.22,26.73-87.49,26.73s-64.52-9.21-87.44-26.63c-17.7-13.46-25.36-27.52-26.17-29.07-1.27-2.53-3.4-4.36-6.02-5.23-1.06-.35-2.16-.52-3.24-.52-1.59,0-3.17.37-4.63,1.1-2.49,1.25-4.33,3.37-5.21,6-.87,2.63-.67,5.44.56,7.92,1.37,2.74,34.71,67.16,132.15,67.16s128.02-59.39,131.83-66.55l.31-.62c2.52-5.05.46-11.25-4.59-13.83ZM332.8,220.28c14.18,0,25.72-11.54,25.72-25.72s-11.54-25.72-25.72-25.72-25.72,11.54-25.72,25.72,11.54,25.72,25.72,25.72ZM179.2,220.28c14.18,0,25.72-11.54,25.72-25.72s-11.54-25.72-25.72-25.72-25.72,11.54-25.72,25.72,11.54,25.72,25.72,25.72ZM256,15.24C123.24,15.24,15.24,123.24,15.24,256s108,240.76,240.76,240.76,240.76-108,240.76-240.76S388.75,15.24,256,15.24ZM256,476.04c-121.33,0-220.04-98.71-220.04-220.04S134.67,35.96,256,35.96s220.04,98.71,220.04,220.04-98.71,220.04-220.04,220.04ZM383.56,292.89c-5.05-2.54-11.31-.52-13.92,4.53-.82,1.56-8.43,15.52-26.14,29.01-22.96,17.49-53.22,26.73-87.49,26.73s-64.52-9.21-87.44-26.63c-17.7-13.46-25.36-27.52-26.17-29.07-1.27-2.53-3.4-4.36-6.02-5.23-1.06-.35-2.16-.52-3.24-.52-1.59,0-3.17.37-4.63,1.1-2.49,1.25-4.33,3.37-5.21,6-.87,2.63-.67,5.44.56,7.92,1.37,2.74,34.71,67.16,132.15,67.16s128.02-59.39,131.83-66.55l.31-.62c2.52-5.05.46-11.25-4.59-13.83ZM332.8,220.28c14.18,0,25.72-11.54,25.72-25.72s-11.54-25.72-25.72-25.72-25.72,11.54-25.72,25.72,11.54,25.72,25.72,25.72ZM179.2,220.28c14.18,0,25.72-11.54,25.72-25.72s-11.54-25.72-25.72-25.72-25.72,11.54-25.72,25.72,11.54,25.72,25.72,25.72ZM179.2,168.84c-14.18,0-25.72,11.54-25.72,25.72s11.54,25.72,25.72,25.72,25.72-11.54,25.72-25.72-11.54-25.72-25.72-25.72ZM332.8,168.84c-14.18,0-25.72,11.54-25.72,25.72s11.54,25.72,25.72,25.72,25.72-11.54,25.72-25.72-11.54-25.72-25.72-25.72ZM383.56,292.89c-5.05-2.54-11.31-.52-13.92,4.53-.82,1.56-8.43,15.52-26.14,29.01-22.96,17.49-53.22,26.73-87.49,26.73s-64.52-9.21-87.44-26.63c-17.7-13.46-25.36-27.52-26.17-29.07-1.27-2.53-3.4-4.36-6.02-5.23-1.06-.35-2.16-.52-3.24-.52-1.59,0-3.17.37-4.63,1.1-2.49,1.25-4.33,3.37-5.21,6-.87,2.63-.67,5.44.56,7.92,1.37,2.74,34.71,67.16,132.15,67.16s128.02-59.39,131.83-66.55l.31-.62c2.52-5.05.46-11.25-4.59-13.83ZM383.56,292.89c-5.05-2.54-11.31-.52-13.92,4.53-.82,1.56-8.43,15.52-26.14,29.01-22.96,17.49-53.22,26.73-87.49,26.73s-64.52-9.21-87.44-26.63c-17.7-13.46-25.36-27.52-26.17-29.07-1.27-2.53-3.4-4.36-6.02-5.23-1.06-.35-2.16-.52-3.24-.52-1.59,0-3.17.37-4.63,1.1-2.49,1.25-4.33,3.37-5.21,6-.87,2.63-.67,5.44.56,7.92,1.37,2.74,34.71,67.16,132.15,67.16s128.02-59.39,131.83-66.55l.31-.62c2.52-5.05.46-11.25-4.59-13.83ZM332.8,168.84c-14.18,0-25.72,11.54-25.72,25.72s11.54,25.72,25.72,25.72,25.72-11.54,25.72-25.72-11.54-25.72-25.72-25.72ZM179.2,168.84c-14.18,0-25.72,11.54-25.72,25.72s11.54,25.72,25.72,25.72,25.72-11.54,25.72-25.72-11.54-25.72-25.72-25.72ZM179.2,168.84c-14.18,0-25.72,11.54-25.72,25.72s11.54,25.72,25.72,25.72,25.72-11.54,25.72-25.72-11.54-25.72-25.72-25.72ZM332.8,168.84c-14.18,0-25.72,11.54-25.72,25.72s11.54,25.72,25.72,25.72,25.72-11.54,25.72-25.72-11.54-25.72-25.72-25.72ZM383.56,292.89c-5.05-2.54-11.31-.52-13.92,4.53-.82,1.56-8.43,15.52-26.14,29.01-22.96,17.49-53.22,26.73-87.49,26.73s-64.52-9.21-87.44-26.63c-17.7-13.46-25.36-27.52-26.17-29.07-1.27-2.53-3.4-4.36-6.02-5.23-1.06-.35-2.16-.52-3.24-.52-1.59,0-3.17.37-4.63,1.1-2.49,1.25-4.33,3.37-5.21,6-.87,2.63-.67,5.44.56,7.92,1.37,2.74,34.71,67.16,132.15,67.16s128.02-59.39,131.83-66.55l.31-.62c2.52-5.05.46-11.25-4.59-13.83ZM383.56,292.89c-5.05-2.54-11.31-.52-13.92,4.53-.82,1.56-8.43,15.52-26.14,29.01-22.96,17.49-53.22,26.73-87.49,26.73s-64.52-9.21-87.44-26.63c-17.7-13.46-25.36-27.52-26.17-29.07-1.27-2.53-3.4-4.36-6.02-5.23-1.06-.35-2.16-.52-3.24-.52-1.59,0-3.17.37-4.63,1.1-2.49,1.25-4.33,3.37-5.21,6-.87,2.63-.67,5.44.56,7.92,1.37,2.74,34.71,67.16,132.15,67.16s128.02-59.39,131.83-66.55l.31-.62c2.52-5.05.46-11.25-4.59-13.83ZM332.8,168.84c-14.18,0-25.72,11.54-25.72,25.72s11.54,25.72,25.72,25.72,25.72-11.54,25.72-25.72-11.54-25.72-25.72-25.72ZM179.2,168.84c-14.18,0-25.72,11.54-25.72,25.72s11.54,25.72,25.72,25.72,25.72-11.54,25.72-25.72-11.54-25.72-25.72-25.72Z"/>
  </g>
</svg>