<?xml version="1.0" encoding="UTF-8"?>
<svg id="Capa_1" xmlns="http://www.w3.org/2000/svg" version="1.1" viewBox="0 0 512 512">
  <!-- Generator: Adobe Illustrator 29.8.1, SVG Export Plug-In . SVG Version: 2.1.1 Build 2)  -->
  <defs>
    <style>
      .st0 {
        fill: #0a0a0c;
      }
    </style>
  </defs>
  <path class="st0" d="M484.36,290.66l-9.31-26.06c-1.27-3.57-5.2-5.43-8.77-4.15-3.57,1.27-5.43,5.2-4.15,8.77l9.31,26.06c11.66,32.64,6.67,69.03-13.34,97.33-6.07,8.58-15.58,13.53-26.1,13.57-10.52.03-20.06-4.84-26.19-13.38l-49.17-68.52c-7.37-10.27-19.31-16.4-31.95-16.4h-137.35c-12.64,0-24.58,6.13-31.95,16.4l-49.17,68.52c-6.11,8.51-15.6,13.38-26.07,13.38h-.12c-10.51-.04-20.03-4.98-26.1-13.57-1.18-1.67-2.33-3.4-3.41-5.13-2.01-3.21-6.24-4.19-9.45-2.19-3.21,2.01-4.19,6.23-2.19,9.45,1.22,1.95,2.51,3.9,3.85,5.79,8.66,12.25,22.24,19.31,37.25,19.36h.17c14.94,0,28.5-6.96,37.21-19.1l49.17-68.52c4.8-6.69,12.57-10.68,20.8-10.68h137.35c8.23,0,16,3.99,20.8,10.68l49.17,68.52c8.72,12.15,22.27,19.1,37.21,19.1h.17c15.01-.05,28.58-7.11,37.25-19.36,22.59-31.95,28.22-73.02,15.05-109.87h0Z"/>
  <path class="st0" d="M38.48,360.33c-6.13-21.5-5.4-44,2.12-65.05l49.51-138.6c10.86-30.41,39.86-50.84,72.15-50.84h187.51c32.29,0,61.29,20.43,72.15,50.84l29.74,83.26c1.27,3.57,5.2,5.43,8.77,4.15,3.57-1.27,5.43-5.2,4.15-8.77l-29.74-83.26c-12.81-35.86-47-59.95-85.07-59.95h-187.51c-38.08,0-72.26,24.09-85.07,59.95l-49.51,138.6c-8.49,23.77-9.32,49.16-2.4,73.43,2.37,8.63,15.75,4.73,13.19-3.76h0Z"/>
  <path class="st0" d="M141.76,218.85h19.04c6.85,0,12.42-5.57,12.42-12.42v-12.66h12.66c6.85,0,12.42-5.57,12.42-12.42v-19.04c0-6.85-5.57-12.42-12.42-12.42h-12.66v-12.66c0-6.85-5.57-12.42-12.42-12.42h-19.04c-6.85,0-12.42,5.57-12.42,12.42v12.66h-12.66c-6.85,0-12.42,5.57-12.42,12.42v19.04c0,6.85,5.57,12.42,12.42,12.42h12.66v12.66c0,6.85,5.57,12.42,12.42,12.42h0ZM117.97,180.04v-16.46h16.37c4.8,0,8.71-3.91,8.71-8.71v-16.37h16.46v16.37c0,4.8,3.91,8.71,8.71,8.71h16.37v16.46h-16.37c-4.8,0-8.71,3.91-8.71,8.71v16.37h-16.46v-16.37c0-4.8-3.91-8.71-8.71-8.71h-16.37Z"/>
  <path class="st0" d="M360.37,135.6c-6.22,0-11.27,5.05-11.27,11.27s5.05,11.27,11.27,11.27,11.27-5.05,11.27-11.27-5.05-11.27-11.27-11.27Z"/>
  <path class="st0" d="M360.37,208.22c6.22,0,11.27-5.05,11.27-11.27s-5.05-11.27-11.27-11.27-11.27,5.05-11.27,11.27,5.05,11.27,11.27,11.27Z"/>
  <circle class="st0" cx="385.42" cy="171.91" r="11.27"/>
  <path class="st0" d="M346.6,171.91c0-6.22-5.05-11.27-11.27-11.27s-11.27,5.05-11.27,11.27,5.05,11.27,11.27,11.27,11.27-5.05,11.27-11.27Z"/>
  <path class="st0" d="M311.72,294.02c22.4,0,40.62-18.22,40.62-40.62s-18.22-40.62-40.62-40.62-40.62,18.22-40.62,40.62,18.22,40.62,40.62,40.62ZM311.72,226.51c14.83,0,26.9,12.07,26.9,26.9s-12.07,26.9-26.9,26.9-26.9-12.07-26.9-26.9,12.07-26.9,26.9-26.9Z"/>
  <path class="st0" d="M208.43,280.31c-4.04,0-7.91-.87-11.52-2.59-3.42-1.62-7.51-.17-9.14,3.25-1.63,3.42-.17,7.51,3.25,9.14,5.46,2.6,11.32,3.91,17.41,3.91,22.4,0,40.62-18.22,40.62-40.62s-18.22-40.62-40.62-40.62-40.62,18.22-40.62,40.62c0,2.01.15,4.02.44,5.99.55,3.75,4.05,6.33,7.79,5.78,3.75-.56,6.34-4.04,5.78-7.79-.19-1.31-.29-2.65-.29-3.98,0-14.83,12.07-26.9,26.9-26.9s26.9,12.07,26.9,26.9-12.07,26.9-26.9,26.9h0Z"/>
  <path class="st0" d="M256.17,190.56c-14.87,0-26.97-12.1-26.97-26.97s12.1-26.97,26.97-26.97,26.97,12.1,26.97,26.97-12.1,26.97-26.97,26.97ZM256.17,150.41c-7.27,0-13.18,5.91-13.18,13.18s5.91,13.18,13.18,13.18,13.18-5.91,13.18-13.18-5.91-13.18-13.18-13.18Z"/>
</svg>