<?xml version="1.0" encoding="UTF-8"?>
<svg id="TEXTS" xmlns="http://www.w3.org/2000/svg" version="1.1" viewBox="0 0 461.7 374.4">
  <!-- Generator: Adobe Illustrator 30.6.0, SVG Export Plug-In . SVG Version: 2.1.4 Build 109)  -->
  <defs>
    <style>
      .st0 {
        fill: #e9a83a;
      }
    </style>
  </defs>
  <g>
    <path class="st0" d="M261.6,95.9c-51.1-31.8-116-20.9-154.5,23.8-48.4,56.1-35.4,141.9,28.7,181.2l-40.2,40.3c-50.4-36.1-77.6-94.5-73.3-156.3,4.2-58.6,38.2-112,90.7-141.2C190.9.5,289.3,22.8,341.4,95.4l-123.1,123.1-39.6-39.8,82.8-82.8Z"/>
    <path class="st0" d="M183.1,331.9l12.3-13.2c64.1.8,118.1-47.7,122.9-112.2,1.7-10.1,3.2-11.7,6.9-16.9l42-41.5c18.3,62.8.9,128.8-44.1,174.2-45.2,45.5-112.1,63.4-175,44.8l14-14.5,7.4-7.2,13.5-13.5Z"/>
    <polygon class="st0" points="424.5 109.1 424.3 58 373.4 58 373.4 20.6 461.7 20.7 461.7 109 424.5 109.1"/>
  </g>
  <g>
    <path class="st0" d="M41.6,315.7l1.9-1.4-2.3-3,1.8-1.3,2.3,3,2-1.5-2.6-3.4,1.8-1.4,4.3,5.7-9.3,7-4.3-5.7,1.8-1.4,2.6,3.4Z"/>
    <path class="st0" d="M31.7,300.5c-1,0-2-.2-2.9-.7s-1.6-1.3-2.2-2.2c-.7-1.2-1-2.4-.8-3.6s.7-2.3,1.6-3.2l1.6,2.7c-.3.4-.5.9-.5,1.4,0,.5.1,1,.4,1.4.4.8,1.1,1.2,1.9,1.4.8.2,1.6,0,2.5-.5.9-.5,1.4-1.2,1.7-1.9.3-.8.2-1.5-.3-2.3-.3-.5-.6-.8-1.1-1.1s-.9-.3-1.5-.3l-1.6-2.7c1.3-.3,2.4-.3,3.6.2,1.1.5,2,1.3,2.7,2.5.6,1,.9,2,.9,3,0,1-.2,2-.8,2.9s-1.3,1.6-2.3,2.2c-1,.6-2,.9-3,.9Z"/>
    <path class="st0" d="M26.7,276.5l1.9,3.9,2.2-.2,1.3,2.7-12.3,1.2-1.4-3,8.7-8.8,1.3,2.7-1.6,1.5ZM25,278.1l-3.2,3.1,4.5-.5-1.2-2.6Z"/>
    <path class="st0" d="M21.5,258.1l1,2.7-5.1,6.9,6.7-2.5,1,2.7-10.9,4-1-2.7,5.1-6.9-6.8,2.5-1-2.7,10.9-4Z"/>
    <path class="st0" d="M17.1,242.8l.8,2.7-5.7,6.5,6.9-1.9.8,2.7-11.2,3.1-.8-2.7,5.7-6.5-6.9,1.9-.8-2.7,11.2-3.1Z"/>
    <path class="st0" d="M12.5,230.7l.8,4.3,2.1.3.5,2.9-12.2-2-.6-3.2,10.7-6.3.5,2.9-1.9,1.1ZM10.5,231.8l-3.9,2.2,4.4.6-.5-2.8Z"/>
    <path class="st0" d="M3.5,215.1c-.9-.4-1.7-1.1-2.2-1.9-.6-.9-.9-1.8-.9-3,0-1.4.2-2.6.9-3.6.7-1,1.6-1.7,2.9-2.2l.2,3.1c-.5.3-.8.6-1,1.1-.2.4-.3.9-.3,1.5,0,.9.4,1.6,1,2.1.6.5,1.5.7,2.5.7s1.8-.4,2.4-1c.6-.6.8-1.3.8-2.2,0-.5-.2-1-.5-1.4s-.7-.7-1.2-.9l-.2-3.1c1.3.3,2.3.8,3.1,1.8.8.9,1.2,2.1,1.3,3.5,0,1.1-.1,2.1-.6,3.1-.4.9-1.1,1.7-2,2.2-.9.6-1.9.9-3,.9-1.1,0-2.2-.1-3.1-.6Z"/>
    <path class="st0" d="M11.1,196.2c-.5.9-1.3,1.6-2.2,2.1-.9.5-2,.8-3.1.7-1.1,0-2.2-.3-3-.9-.9-.6-1.6-1.3-2.1-2.2-.5-.9-.7-1.9-.7-3,0-1.1.3-2.1.8-3s1.3-1.6,2.2-2.1,1.9-.7,3.1-.7c1.1,0,2.2.3,3.1.9.9.6,1.6,1.3,2.1,2.2s.7,1.9.7,3-.3,2.1-.8,3ZM8.5,190.9c-.6-.6-1.4-.9-2.4-.9-1,0-1.9.2-2.5.8s-1,1.3-1,2.2c0,.9.3,1.7.9,2.3.6.6,1.4.9,2.4.9,1,0,1.9-.2,2.5-.8s1-1.3,1-2.2c0-.9-.3-1.7-.9-2.3Z"/>
    <path class="st0" d="M1.1,178.3l11.6,1.1-.3,2.8-11.6-1.1.3-2.8Z"/>
    <path class="st0" d="M14.9,163.5l-.4,2.8-7.8,3.6,7.1,1.1-.4,2.8-11.5-1.8.4-2.8,7.9-3.5-7.1-1.1.4-2.8,11.5,1.8Z"/>
    <path class="st0" d="M9.3,140.8c.7-.7,1.6-1.2,2.6-1.5s2-.2,3.1.1c1.1.3,2,.8,2.7,1.6.7.7,1.2,1.6,1.4,2.6.2,1,.1,2.1-.2,3.3l-1.2,4.2-11.2-3.2,1.2-4.2c.3-1.2.9-2.1,1.6-2.9ZM16.3,143.8c-.4-.7-1.1-1.3-2.1-1.5-1-.3-1.9-.2-2.7.2-.7.4-1.3,1.1-1.6,2.2l-.4,1.3,6.5,1.9.4-1.3c.3-1,.2-1.9-.2-2.6Z"/>
    <path class="st0" d="M12.3,129.6l10.9,3.9-1,2.7-10.9-3.9,1-2.7Z"/>
    <path class="st0" d="M21,118c-.4,0-.8.2-1.2.5-.3.3-.6.7-.8,1.1-.4.8-.4,1.6,0,2.4.3.7,1,1.3,1.9,1.7,1,.4,1.9.5,2.6.2.8-.3,1.4-.9,1.8-1.8.3-.6.4-1.2.2-1.8-.1-.6-.5-1.1-1-1.6l-1.4,3.3-1.9-.8,2.5-5.6,2.4,1.1c.6.5,1,1.1,1.4,1.8.4.7.5,1.5.6,2.3,0,.9-.1,1.7-.5,2.6-.5,1.1-1.1,1.9-1.9,2.5s-1.7,1-2.8,1.1c-1,.1-2.1,0-3.1-.5s-1.9-1.1-2.5-1.9-1-1.7-1.1-2.8,0-2.1.5-3.1c.6-1.3,1.3-2.2,2.3-2.8s2.1-.8,3.3-.6l-1.3,2.9Z"/>
    <path class="st0" d="M22.9,105.7l10.3,5.4-1.3,2.5-10.3-5.4,1.3-2.5Z"/>
    <path class="st0" d="M30.2,93l1.9,1.2-1.6,2.6,8,4.8-1.5,2.4-8-4.8-1.6,2.6-1.9-1.2,4.6-7.7Z"/>
    <path class="st0" d="M45.4,87.7l-2.5,3.5,1.3,1.8-1.7,2.4-7.1-10.2,1.9-2.7,11.9,3.3-1.7,2.4-2.1-.6ZM43.2,87.1l-4.3-1.3,2.7,3.6,1.7-2.3Z"/>
    <path class="st0" d="M52.3,78.6l2.4-2.9,1.7,1.4-4.2,5.1-9-7.4,1.8-2.2,7.3,6Z"/>
    <path class="st0" d="M68.2,61.7l-3.1,3,.9,2-2.1,2.1-5.1-11.3,2.4-2.3,11.1,5.4-2.1,2.1-1.9-1ZM66.2,60.6l-4-2,1.9,4,2.1-2Z"/>
    <path class="st0" d="M77.2,55.9c-.7.2-1.4.2-2,0-.7-.2-1.2-.5-1.7-1.1l2.3-1.9c.3.3.6.5,1,.5.3,0,.7-.1,1-.4.3-.3.5-.6.6-.9,0-.3,0-.6-.2-.9-.2-.2-.4-.3-.7-.4-.3,0-.5,0-.8,0-.3,0-.7.2-1.2.4-.7.3-1.3.5-1.9.6-.5.1-1,.1-1.6,0-.6-.1-1.1-.5-1.5-1-.7-.8-.9-1.7-.7-2.7.2-1,.8-1.9,1.8-2.7,1-.8,2-1.2,3-1.3,1,0,1.9.4,2.6,1.2l-2.4,2c-.3-.3-.6-.4-.9-.4s-.7.1-1,.4c-.3.2-.4.5-.5.7,0,.3,0,.5.3.8.2.3.6.4,1,.3.4,0,1-.2,1.7-.5.7-.3,1.4-.5,1.9-.6.5-.1,1-.1,1.6,0,.5.1,1,.4,1.5,1,.4.5.7,1.1.8,1.7s0,1.3-.3,1.9c-.3.7-.8,1.3-1.4,1.8-.7.5-1.3.9-2,1.1Z"/>
    <path class="st0" d="M88,47.4c-.7.2-1.4.1-2,0-.6-.2-1.2-.6-1.7-1.2l2.5-1.8c.3.3.6.5.9.5.3,0,.7,0,1-.3.3-.2.6-.5.6-.8,0-.3,0-.6-.2-.9-.2-.2-.4-.4-.7-.4-.3,0-.5,0-.8,0-.3,0-.7.2-1.2.4-.7.2-1.4.4-1.9.5-.5,0-1.1,0-1.6-.1-.5-.2-1-.5-1.4-1.1-.6-.9-.8-1.8-.5-2.8.3-1,.9-1.8,2-2.5,1-.7,2.1-1.1,3.1-1.1,1,0,1.8.5,2.5,1.3l-2.5,1.8c-.2-.3-.5-.5-.9-.5s-.7,0-1,.3c-.3.2-.4.4-.5.7s0,.5.2.8c.2.3.5.4.9.4.4,0,1-.2,1.7-.4.8-.2,1.4-.4,1.9-.5s1,0,1.6.1c.5.2,1,.5,1.4,1.1.4.5.6,1.1.6,1.8s-.1,1.3-.4,1.9c-.3.6-.9,1.2-1.6,1.7-.7.5-1.4.8-2.1,1Z"/>
    <path class="st0" d="M95.4,31.5l1.2,2,3.2-2,1.1,1.9-3.2,2,1.3,2.2,3.7-2.2,1.2,1.9-6.1,3.7-6.1-9.9,6.1-3.7,1.2,1.9-3.7,2.2Z"/>
    <path class="st0" d="M110.6,20.4l1.1,2-2.7,1.4,4.3,8.3-2.5,1.3-4.3-8.3-2.7,1.4-1.1-2,8-4.2Z"/>
    <path class="st0" d="M135.4,22.5l-1.4-.6c-.7,1.1-1.8,2-3.2,2.5-.8.3-1.6.5-2.3.4-.7,0-1.3-.2-1.9-.6-.5-.4-.9-.9-1.2-1.6-.3-.7-.3-1.4-.2-2.1s.5-1.4,1.1-2c-.4-.2-.7-.5-.9-.7-.2-.3-.4-.6-.6-.9-.2-.5-.2-1-.1-1.6.1-.5.4-1,.8-1.4s1-.8,1.7-1.1c.7-.3,1.4-.4,2-.3.6,0,1.1.3,1.5.6.4.3.7.8.9,1.3l-2.5.9c0-.3-.2-.5-.5-.6-.2,0-.4,0-.7,0s-.4.2-.5.5c-.1.2-.1.4,0,.7,0,.2.2.4.5.6.2.2.6.4,1,.6l3.6,1.6c0,0,0-.1,0-.2,0,0,0-.2,0-.3l.2-1.2,2.6-1-.2,1.6c0,.7-.1,1.4-.3,2.1l3.6,1.6-3.1,1.2ZM131.7,20.9l-3.3-1.4c-.6.7-.8,1.3-.5,2,.1.4.4.7.8.8.4.1.9.1,1.4,0,.7-.3,1.2-.7,1.6-1.3Z"/>
    <path class="st0" d="M162.6,3l-.4,12-3.3.8-3.5-7.1-.2,7.9-3.3.8-5.4-10.7,3-.7,3.5,7.9.2-8.7,3-.7,3.8,7.8-.2-8.6,3-.7Z"/>
    <path class="st0" d="M171.6,4.1l.3,2.3,3.8-.5.3,2.2-3.8.5.3,2.5,4.3-.6.3,2.2-7.1.9-1.5-11.5,7.1-.9.3,2.2-4.3.6Z"/>
    <path class="st0" d="M189.5,9.8l-4.3.2-.6,2.1-3,.2,3.5-11.8,3.3-.2,4.9,11.4-3,.2-.8-2ZM188.7,7.6l-1.7-4.2-1.2,4.3,2.9-.2Z"/>
    <path class="st0" d="M201,9.5h3.7c0,0,0,2.2,0,2.2h-6.5c0-.1.2-11.7.2-11.7h2.8s-.2,9.5-.2,9.5Z"/>
    <path class="st0" d="M218.9,1l-.2,2.3-3.1-.2-.8,9.3-2.8-.2.8-9.3-3.1-.2.2-2.3,9,.7Z"/>
    <path class="st0" d="M234.6,3.3l-1.8,11.5-2.8-.4.8-4.7-4.3-.7-.8,4.7-2.8-.4,1.8-11.5,2.8.4-.7,4.5,4.4.7.7-4.5,2.8.4Z"/>
    <path class="st0" d="M261.1,10.1l-3.3,11.1-2.7-.8,2-6.7-4.5,5.9-2.2-.7-.5-7.4-2,6.7-2.7-.8,3.3-11.1,3.2,1,.8,8.6,5.4-6.8,3.2.9Z"/>
    <path class="st0" d="M270.4,23.9l-4-1.6-1.4,1.6-2.8-1.1,8.2-9.2,3,1.2-.4,12.4-2.8-1.1v-2.2ZM270.6,21.6l.3-4.5-2.9,3.4,2.7,1.1Z"/>
    <path class="st0" d="M286.7,33.9l-2.5-1.3-1-8.5-3.2,6.4-2.5-1.3,5.2-10.4,2.5,1.3,1,8.6,3.2-6.4,2.5,1.3-5.2,10.4Z"/>
    <path class="st0" d="M298.8,38.7l-3.7-2.3-1.7,1.4-2.5-1.6,9.7-7.7,2.8,1.7-2.5,12.1-2.6-1.6.5-2.1ZM299.4,36.4l1-4.4-3.4,2.9,2.4,1.5Z"/>
    <path class="st0" d="M315.8,43.3c0-.4,0-.9-.2-1.2-.2-.4-.5-.8-.9-1.1-.7-.5-1.5-.7-2.3-.6-.8.2-1.5.6-2.1,1.4-.6.9-.9,1.7-.8,2.5.1.8.6,1.5,1.4,2.2.6.4,1.1.6,1.7.6.6,0,1.2-.2,1.8-.6l-2.9-2.1,1.2-1.7,5,3.7-1.6,2.1c-.6.4-1.3.8-2,.9-.8.2-1.6.2-2.4,0-.8-.2-1.7-.5-2.4-1.1-.9-.7-1.6-1.5-2-2.4s-.6-1.9-.4-2.9c.1-1,.5-2,1.2-2.9.7-.9,1.5-1.6,2.4-2,.9-.4,1.9-.6,2.9-.4,1,.1,2,.5,2.9,1.2,1.1.8,1.9,1.8,2.2,2.9.4,1.1.3,2.2-.1,3.4l-2.5-1.9Z"/>
    <path class="st0" d="M325.9,49.7l-1.5,1.8,2.9,2.5-1.4,1.7-2.9-2.5-1.7,1.9,3.2,2.8-1.5,1.7-5.4-4.7,7.6-8.8,5.4,4.7-1.5,1.7-3.2-2.8Z"/>
    <path class="st0" d="M344.5,64.4l-8.3,8.1-2-2,5-4.9-6.8,3-1.6-1.6,3.2-6.8-5,4.9-2-2,8.3-8.1,2.3,2.4-3.5,8,8-3.3,2.3,2.4Z"/>
    <path class="st0" d="M348.8,73l-1.8,1.5,2.4,2.9-1.7,1.4-2.4-2.9-2,1.6,2.7,3.3-1.8,1.4-4.5-5.5,9-7.4,4.5,5.5-1.7,1.4-2.7-3.3Z"/>
    <path class="st0" d="M353.6,95l-1.6-2.3,3.1-8-5.9,4.1-1.6-2.3,9.5-6.7,1.6,2.3-3.2,8,5.9-4.2,1.6,2.3-9.5,6.7Z"/>
    <path class="st0" d="M370.9,100.9l-2,1.2-1.6-2.6-8,4.8-1.4-2.4,8-4.8-1.6-2.6,2-1.2,4.6,7.7Z"/>
    <path class="st0" d="M375.4,122.8c-.6,0-1.2-.3-1.8-.7-.6-.4-1.1-1.1-1.4-2l-.7-1.6-3.8,1.7-1.2-2.6,10.6-4.8,1.9,4.2c.4.8.6,1.6.5,2.3,0,.7-.2,1.3-.6,1.9-.4.5-.9.9-1.6,1.2-.6.3-1.2.4-1.9.3ZM375,119.9c.3.1.7.1,1.1,0,.4-.2.7-.5.8-.8s0-.8-.2-1.3l-.6-1.4-2.7,1.2.6,1.4c.2.5.5.8.8.9Z"/>
    <path class="st0" d="M374,135.9l3.3-3.8-.2-.6-4.1,1.5-1-2.7,10.9-4,1.6,4.5c.3.9.4,1.7.3,2.4,0,.7-.3,1.3-.7,1.8s-.9.9-1.6,1.1c-.7.3-1.4.3-2.2,0-.7-.2-1.3-.7-1.9-1.4l-3.4,4.1-1.1-3ZM379,130.8l.6,1.6c.2.5.4.8.8,1,.3.2.7.2,1.1,0,.4-.2.7-.4.8-.7.1-.3.1-.7,0-1.2l-.6-1.6-2.7,1Z"/>
    <path class="st0" d="M388.6,143.4l-11.2,3.3-.8-2.7,11.2-3.3.8,2.7Z"/>
    <path class="st0" d="M392.7,160.2l-12.2-1.5-.8-3.5,10.4-6.6.7,2.9-7.9,4.7,9.2.9.7,2.9Z"/>
    <path class="st0" d="M385.2,174.2l-.6-4.3-2.1-.4-.4-2.9,12.1,2.6.5,3.2-10.9,5.8-.4-3,1.9-1ZM387.2,173.2l4-2-4.4-.8.4,2.8Z"/>
    <path class="st0" d="M396.2,190.6h-2.3c0,.1-.2-2.9-.2-2.9l-9.3.6-.2-2.8,9.3-.6-.2-3.1h2.3c0-.1.5,8.8.5,8.8Z"/>
    <path class="st0" d="M394,199.2h-2.4s0,3.8,0,3.8h-2.2s0-3.8,0-3.8h-2.6s0,4.3,0,4.3h-2.3s0-7.1,0-7.1h11.6c0,.1,0,7.2,0,7.2h-2.3s0-4.3,0-4.3Z"/>
    <path class="st0" d="M385.7,218.9l-.4,3.7-2.2-.2.7-6.5,11.6,1.3-.3,2.8-9.4-1Z"/>
    <path class="st0" d="M393.4,231.9l-11.5-1.9.5-2.8,11.5,1.9-.5,2.8Z"/>
    <path class="st0" d="M389.2,251.1l-11.3-2.7.7-2.8,6.8,1.6-6.2-4.2.5-2.2,7.4-.9-6.8-1.6.7-2.8,11.3,2.7-.8,3.3-8.6,1.3,7.1,5-.8,3.2Z"/>
    <path class="st0" d="M386.4,259.9l-11.1-3.5.9-2.7,11.1,3.5-.9,2.7Z"/>
    <path class="st0" d="M381.4,273.7l-2.1-.8,1.1-2.9-8.7-3.4,1-2.6,8.7,3.4,1.1-2.9,2.1.8-3.3,8.4Z"/>
    <path class="st0" d="M375.8,280.6l-2.1-1-1.6,3.4-2-.9,1.6-3.4-2.3-1.1-1.8,3.9-2.1-1,3-6.4,10.5,4.9-3,6.4-2.1-1,1.8-3.9Z"/>
    <path class="st0" d="M368.9,297.3c-.9.6-1.8.8-2.8.8-1,0-2-.3-3-.8-1-.6-1.7-1.3-2.3-2.1-.5-.9-.8-1.8-.7-2.9,0-1,.3-2.1.9-3.1l2.1-3.8,10.1,5.7-2.1,3.8c-.6,1.1-1.3,1.9-2.2,2.4ZM362.7,292.8c.2.8.8,1.5,1.7,2s1.8.7,2.6.5c.8-.2,1.5-.8,2-1.7l.7-1.2-5.9-3.3-.7,1.2c-.5.9-.7,1.8-.5,2.6Z"/>
  </g>
</svg>