<?xml version="1.0" encoding="UTF-8"?>
<svg id="Layer_1" xmlns="http://www.w3.org/2000/svg" version="1.1" viewBox="0 0 464 464">
  <!-- Generator: Adobe Illustrator 29.8.1, SVG Export Plug-In . SVG Version: 2.1.1 Build 2)  -->
  <defs>
    <style>
      .st0 {
        fill: #0a0a0c;
      }
    </style>
  </defs>
  <path class="st0" d="M112,104c4.42,0,8-3.58,8-8v-64c0-4.42-3.58-8-8-8s-8,3.58-8,8v64c0,4.42,3.58,8,8,8Z"/>
  <path class="st0" d="M463.39,228.94c-1.23-2.99-4.16-4.94-7.39-4.94h-96V72c0-4.42-3.58-8-8-8s-8,3.58-8,8v160c0,4.42,3.58,8,8,8h84.69l-204.69,204.69L27.31,240h84.69c4.42,0,8-3.58,8-8v-104c0-4.42-3.58-8-8-8s-8,3.58-8,8v96H8c-3.23,0-6.16,1.95-7.39,4.94-1.24,2.99-.55,6.43,1.73,8.72l224,224c1.56,1.56,3.61,2.34,5.66,2.34s4.09-.78,5.66-2.34l224-224c2.29-2.29,2.98-5.73,1.73-8.72Z"/>
  <path class="st0" d="M192,56c4.42,0,8-3.58,8-8V8C200,3.58,196.42,0,192,0s-8,3.58-8,8v40c0,4.42,3.58,8,8,8Z"/>
  <path class="st0" d="M272,80c4.42,0,8-3.58,8-8V8C280,3.58,276.42,0,272,0s-8,3.58-8,8v64c0,4.42,3.58,8,8,8Z"/>
  <path class="st0" d="M56,424h-16v-16c0-4.42-3.58-8-8-8s-8,3.58-8,8v16H8c-4.42,0-8,3.58-8,8s3.58,8,8,8h16v16c0,4.42,3.58,8,8,8s8-3.58,8-8v-16h16c4.42,0,8-3.58,8-8s-3.58-8-8-8Z"/>
  <path class="st0" d="M96,376c0,8.84-7.16,16-16,16s-16-7.16-16-16,7.16-16,16-16,16,7.16,16,16Z"/>
  <path class="st0" d="M456,424h-16v-16c0-4.42-3.58-8-8-8s-8,3.58-8,8v16h-16c-4.42,0-8,3.58-8,8s3.58,8,8,8h16v16c0,4.42,3.58,8,8,8s8-3.58,8-8v-16h16c4.42,0,8-3.58,8-8s-3.58-8-8-8Z"/>
  <path class="st0" d="M400,376c0,8.84-7.16,16-16,16s-16-7.16-16-16,7.16-16,16-16,16,7.16,16,16Z"/>
  <path class="st0" d="M226.29,240h11.42c14.49,0,26.29,11.79,26.29,26.28s-11.8,26.28-26.29,26.28h-34.28c-4.42,0-8,3.58-8,8s3.58,8,8,8h20.57v14.86c0,4.42,3.58,8,8,8s8-3.58,8-8v-15.09c22.24-1.21,40-19.52,40-42.05s-18.97-42.28-42.29-42.28h-11.42c-14.49,0-26.29-11.79-26.29-26.28s11.8-26.28,26.29-26.28h28.57c4.42,0,8-3.58,8-8s-3.58-8-8-8h-14.86v-14.86c0-4.42-3.58-8-8-8s-8,3.58-8,8v15.09c-22.24,1.21-40,19.52-40,42.05s18.97,42.28,42.29,42.28Z"/>
</svg>