<?xml version="1.0" encoding="UTF-8"?>
<svg id="Capa_1" xmlns="http://www.w3.org/2000/svg" version="1.1" viewBox="0 0 512 512">
  <!-- Generator: Adobe Illustrator 29.8.1, SVG Export Plug-In . SVG Version: 2.1.1 Build 2)  -->
  <defs>
    <style>
      .st0 {
        fill: #0a0a0c;
      }
    </style>
  </defs>
  <path class="st0" d="M331.08,41.45h-.01c-78.79,0-142.88,64.1-142.88,142.89,0,17.21,3.03,34.03,9,50.01,1.23,3.3,4.91,4.98,8.22,3.75,3.3-1.23,4.98-4.91,3.75-8.22-4.69-12.56-7.39-25.71-8.03-39.16h41.76c.39,14.69,2.15,29.05,5.23,42.79.77,3.44,4.19,5.6,7.63,4.83,3.44-.77,5.6-4.19,4.83-7.63-2.88-12.82-4.52-26.25-4.91-39.99h69.03v130.12c0,3.53,2.86,6.39,6.39,6.39,78.79,0,142.89-64.1,142.89-142.89,0-78.79-64.1-142.88-142.88-142.89h0ZM441.53,253.03h-32.9c6.39-18.98,10.05-40.2,10.64-62.3h41.76c-1.11,22.79-8.11,44.05-19.5,62.3ZM324.69,54.7v48.18h-52.32c1.94-4.1,4.03-8.03,6.27-11.77,12.71-21.18,28.86-33.87,46.05-36.4ZM337.46,54.7c17.19,2.53,33.35,15.22,46.05,36.4,2.25,3.74,4.33,7.68,6.27,11.77h-52.32v-48.18ZM395.11,115.65c6.83,18.66,10.76,39.96,11.39,62.3h-69.04v-62.3h57.65ZM419.27,177.95c-.59-22.11-4.25-43.32-10.64-62.3h32.9c11.39,18.25,18.39,39.52,19.5,62.3h-41.76ZM432.45,102.88h-28.68c-2.76-6.47-5.87-12.61-9.31-18.35-5-8.34-10.54-15.54-16.48-21.56,21.5,8.34,40.24,22.23,54.47,39.9ZM284.17,62.98c-5.94,6.01-11.48,13.22-16.48,21.56-3.44,5.74-6.55,11.87-9.31,18.35h-28.68c14.23-17.68,32.98-31.57,54.47-39.9h0ZM220.62,115.65h32.9c-6.39,18.98-10.05,40.2-10.64,62.3h-41.76c1.11-22.79,8.11-44.05,19.5-62.3ZM255.65,177.95c.63-22.35,4.56-43.64,11.39-62.3h57.64v62.3h-69.04ZM406.5,190.72c-.63,22.35-4.56,43.64-11.39,62.3h-57.65v-62.3h69.04ZM337.46,313.97v-48.18h52.32c-1.94,4.1-4.03,8.03-6.27,11.77-12.71,21.18-28.86,33.87-46.05,36.4h0ZM377.98,305.7c5.94-6.01,11.48-13.22,16.48-21.56,3.44-5.74,6.55-11.87,9.31-18.35h28.68c-14.23,17.67-32.98,31.57-54.47,39.9h0Z"/>
  <path class="st0" d="M303.78,253.03H94.53l-5.25-15.76c-3.66-10.98-13.9-18.37-25.48-18.37h-19.37c-3.53,0-6.39,2.86-6.39,6.39s2.86,6.39,6.39,6.39h19.37c6.07,0,11.45,3.87,13.37,9.63l42.6,127.81c1.66,4.98,4.38,9.34,7.82,12.89l-16.49,35.34c-1.7-.34-3.45-.52-5.25-.52-14.81,0-26.86,12.05-26.86,26.86s12.05,26.86,26.86,26.86c12.61,0,23.21-8.74,26.09-20.48h125.28c2.87,11.74,13.48,20.48,26.09,20.48,14.81,0,26.86-12.05,26.86-26.86s-12.05-26.86-26.86-26.86c-12.61,0-23.21,8.74-26.09,20.47h-125.28c-1.42-5.82-4.75-10.9-9.28-14.54l15.58-33.39c4.15,1.81,8.7,2.79,13.39,2.79,1.78,0,3.59-.14,5.41-.43l124.75-19.96c16.43-2.63,28.36-16.62,28.36-33.26v-79.1c0-3.53-2.86-6.39-6.38-6.39h0ZM105.85,457.78c-7.77,0-14.09-6.32-14.09-14.09s6.32-14.09,14.09-14.09,14.09,6.32,14.09,14.09-6.32,14.09-14.09,14.09ZM283.3,429.6c7.77,0,14.09,6.32,14.09,14.09s-6.32,14.09-14.09,14.09-14.09-6.32-14.09-14.09,6.32-14.09,14.09-14.09ZM297.39,338.51c0,10.33-7.41,19.02-17.61,20.65l-124.75,19.96c-10.16,1.62-19.89-4.28-23.15-14.04l-33.09-99.28h198.6v72.71Z"/>
  <path class="st0" d="M269.65,345.68c3.53,0,6.39-2.86,6.39-6.39v-52.58c0-3.53-2.86-6.39-6.39-6.39s-6.39,2.86-6.39,6.39v52.58c0,3.53,2.86,6.39,6.39,6.39Z"/>
  <path class="st0" d="M235.53,351.14c3.53,0,6.39-2.86,6.39-6.39v-58.05c0-3.53-2.86-6.39-6.39-6.39s-6.39,2.86-6.39,6.39v58.05c0,3.53,2.86,6.39,6.39,6.39Z"/>
  <path class="st0" d="M201.4,356.56c3.53,0,6.39-2.86,6.39-6.39v-63.47c0-3.53-2.86-6.39-6.39-6.39s-6.39,2.86-6.39,6.39v63.47c0,3.53,2.86,6.39,6.39,6.39Z"/>
  <path class="st0" d="M167.27,362.12c3.53,0,6.39-2.86,6.39-6.39v-69.02c0-3.53-2.86-6.39-6.39-6.39s-6.39,2.86-6.39,6.39v69.02c0,3.53,2.86,6.39,6.39,6.39Z"/>
  <path class="st0" d="M133.15,306.75c3.53,0,6.39-2.86,6.39-6.39v-13.65c0-3.53-2.86-6.39-6.39-6.39s-6.39,2.86-6.39,6.39v13.65c0,3.53,2.86,6.39,6.39,6.39Z"/>
</svg>