<?xml version="1.0" encoding="UTF-8"?>
<svg id="Layer_1" xmlns="http://www.w3.org/2000/svg" version="1.1" viewBox="0 0 100 100">
  <!-- Generator: Adobe Illustrator 29.8.1, SVG Export Plug-In . SVG Version: 2.1.1 Build 2)  -->
  <defs>
    <style>
      .st0 {
        fill: #0a0a0c;
      }
    </style>
  </defs>
  <g id="Layer_3">
    <path class="st0" d="M27.03,72.79c.36.83,0,1.8-.83,2.18-.22.1-.47.17-.71.17-.64,0-1.21-.37-1.5-.93,0-.02-.02-.03-.03-.05-.18-.4-.2-.86-.05-1.28.15-.42.45-.77.86-.96.82-.39,1.86,0,2.23.81.01.02.01.04.02.06ZM90.16,60.83l-8.4,16.81c-.22.44-.62.76-1.1.88-.13.03-.27.05-.4.05-.35,0-.69-.11-.98-.31-5.93-4.24-9.46-4.85-13.2-5.5-3.02-.52-6.14-1.07-10.3-3.52l-3.92,8.49,4.72,10.22c.39.84.02,1.84-.82,2.23-.23.11-.47.15-.7.15-.63,0-1.24-.36-1.53-.98l-3.51-7.62-3.52,7.62c-.28.61-.89.98-1.53.98-.24,0-.47-.05-.7-.15-.84-.39-1.21-1.39-.82-2.23l4.72-10.22-3.92-8.49c-4.19,2.46-7.47,3.02-10.4,3.53-.57.1-1.11.2-1.65.3-.9.17-1.77-.42-1.96-1.29,0-.01,0-.02-.01-.03-.08-.44,0-.89.25-1.26.25-.37.64-.62,1.08-.71.66-.14,1.3-.25,1.9-.35,2.99-.52,5.58-.97,9.38-3.26l-6.97-15.33c-4.74,3.06-8.39,3.95-11.61,4.74l-.24.05c-3.34.84-6.22,1.56-10.54,4.91l7.68,15.4.1.2c.2.4.24.86.1,1.28-.15.44-.45.77-.86.97-.24.12-.49.18-.74.18-.64,0-1.23-.37-1.51-.94l-8.4-16.79c-.34-.71-.17-1.54.44-2.05,5.08-4.25,9.01-5.46,12.92-6.42l.5-.12c3.5-.87,6.81-1.7,11.88-5.29.4-.3.92-.39,1.41-.27.49.13.88.47,1.09.92l8.39,18.46s.01.02.01.03l3.52,7.62,3.51-7.62s0,0,0,0l8.4-18.47c.21-.46.61-.8,1.09-.93.48-.13,1-.04,1.41.26,5.06,3.62,8.59,4.49,12,5.33,3.83.94,7.79,1.92,13.3,6.51.6.5.77,1.35.43,2.04h0ZM79.61,74.41l6.93-13.87c-4.35-3.38-7.42-4.14-10.92-5-3.18-.78-6.74-1.66-11.47-4.71l-6.97,15.34c3.8,2.29,6.56,2.77,9.47,3.28,3.61.63,7.33,1.27,12.96,4.97ZM17.16,36.14c-.38-.43-.51-1.03-.35-1.59l2.37-7.96,2.44-8.22s0,0,0,0l1.91-6.43c.17-.58.64-1.02,1.23-1.16,3.27-.77,6.44-1.12,9.63-1.11,3.58.02,6.79.51,10.04,1.06h0c3.24.55,6.43,1.08,10,1.2,2.81.09,5.56-.08,8.41-.53.56-.09,1.13.11,1.51.54.38.43.52,1.02.37,1.57l-1.93,6.97-2.29,8.27s0,0,0,0l-2.11,7.63c.02.21,0,.42-.05.64l-6.72,23.53c-.21.74-.88,1.22-1.62,1.22-.15,0-.31-.02-.46-.06-.89-.26-1.41-1.19-1.15-2.08l5.82-20.38c-.88.06-1.75.09-2.63.09-1.43,0-2.88-.08-4.37-.24-2.88-.3-5.58-.86-8.19-1.4l-2.02-.41s0,0,0,0c-2.76-.55-5.81-1.07-9.44-1.17-2.89-.08-5.8.11-8.86.6-.09.01-.18.02-.26.02-.48,0-.94-.21-1.26-.57h0ZM25.86,16.73c.31-.04.62-.07.94-.11.11-.01.22-.02.33-.03.35-.03.71-.06,1.07-.08.08,0,.15-.01.22-.01.42-.03.84-.05,1.27-.06.02,0,.03,0,.05,0,.46-.01.93-.02,1.4-.02l.98-3.32c-1.87.1-3.74.35-5.64.76l-.87,2.92c.08-.01.17-.02.25-.03ZM56.06,30.27c-.17.01-.33.02-.5.04-.46.03-.92.05-1.39.07-.05,0-.11,0-.16,0-.53.02-1.07.03-1.62.03-.03,0-.07,0-.1,0-.06,0-.12,0-.19,0-.3,0-.61,0-.91,0l-1.62,5.5c1.86.1,3.66.06,5.5-.11l1.54-5.55c-.18.02-.36.03-.54.04ZM20.77,33.02c1.89-.21,3.71-.3,5.57-.31l1.34-4.56s-.07,0-.1,0c-.41,0-.81.01-1.21.02-.17,0-.34.01-.51.02-.26.01-.52.02-.77.04-.17.01-.35.02-.52.04-.27.02-.53.05-.8.07-.15.01-.3.03-.44.05-.41.05-.81.1-1.22.16,0,0-.01,0-.02,0l-1.32,4.46ZM49.93,21.73c-.18-.02-.36-.03-.53-.05-.6-.06-1.21-.12-1.8-.19-.18-.02-.36-.04-.54-.06-.72-.09-1.44-.18-2.15-.28-.11-.01-.23-.03-.34-.05-.39-.06-.79-.11-1.18-.17l-.83,2.83-.72,2.43h0c.08.01.15.02.23.03.43.06.85.11,1.27.17.11.01.22.03.33.04.52.07,1.03.13,1.54.18.1.01.21.02.31.03.41.05.82.09,1.23.12.14.01.29.03.43.04.46.04.92.08,1.39.11.04,0,.08,0,.12.01h0s1.19-4.07,1.19-4.07l.33-1.11c-.1,0-.19-.02-.29-.03ZM40.03,20.46s-.08-.01-.12-.01c-.46-.06-.91-.12-1.38-.17-.03,0-.06,0-.09-.01-.46-.05-.91-.1-1.38-.15-.15-.02-.31-.03-.46-.05-.34-.03-.69-.07-1.04-.09-.15-.01-.31-.03-.46-.04-.49-.04-.98-.07-1.47-.09l-1.51,5.14c.07,0,.15.01.22.02.41.03.81.07,1.22.11.09,0,.18.02.26.02.5.05.99.11,1.48.17.12.01.24.03.36.04.38.05.76.09,1.13.14.14.02.28.04.42.06.37.05.73.1,1.09.15.06,0,.13.02.19.03l1.54-5.25h0s0,0,0,0ZM29.81,32.85c2.33.17,4.45.49,6.33.84l1.39-4.72s-.06,0-.09-.01c-.47-.07-.95-.13-1.44-.19-.03,0-.06,0-.09-.01-.43-.06-.87-.11-1.31-.16-.16-.02-.32-.04-.48-.05-.33-.04-.67-.07-1-.1-.17-.02-.34-.03-.51-.05-.42-.04-.84-.07-1.27-.1-.06,0-.12-.01-.18-.01l-1.34,4.57ZM39.45,34.34l.24.05c2.19.45,4.28.88,6.47,1.18l1.01-3.45.56-1.89h0c-.1,0-.2-.02-.3-.03-.41-.03-.81-.07-1.21-.11-.14-.01-.28-.02-.42-.04-.53-.05-1.06-.11-1.57-.17-.13-.01-.25-.03-.38-.05-.39-.05-.77-.1-1.15-.15-.19-.02-.38-.05-.57-.08-.32-.04-.63-.09-.94-.13-.1-.01-.21-.03-.3-.04l-1.44,4.89ZM58.71,21.92c-.17.01-.35.02-.52.03-.29.01-.58.03-.88.04-.17,0-.34,0-.5.01-.3,0-.6.01-.9.01-.16,0-.33,0-.49,0-.36,0-.72,0-1.08-.02-.16,0-.32,0-.48-.01-.06,0-.13,0-.19,0l-1.43,4.85-.07.22h0s.08,0,.08,0c0,0,0,0,0,0h.03c.65,0,1.28-.02,1.91-.04.14,0,.28-.01.42-.02.61-.03,1.22-.07,1.82-.12.13-.01.26-.03.39-.04.25-.02.5-.05.74-.07h0s1.34-4.85,1.34-4.85c-.06,0-.13,0-.19,0ZM60.81,15.05c-1.74.18-3.45.26-5.18.26l-.87,2.94-.12.39s.04,0,.06,0c.04,0,.07,0,.11,0,.63.01,1.24,0,1.85,0,.11,0,.22,0,.32,0,.63-.02,1.25-.05,1.86-.09.09,0,.17-.01.26-.02.25-.02.5-.05.75-.07l.94-3.4ZM52.16,15.16c-2.42-.18-4.66-.52-6.82-.88l-.31,1.07-.68,2.31c.17.02.35.05.53.07.2.03.4.06.6.08.66.09,1.33.18,2,.26l.21.03c.7.08,1.4.16,2.11.23.21.02.42.04.62.06.26.02.52.04.78.06l.44-1.51.52-1.78ZM42.01,13.73c-2.13-.33-4.18-.6-6.38-.68l-1.02,3.46c.07,0,.13.01.2.01.42.03.84.06,1.26.1.07,0,.15.01.22.02.49.05.98.09,1.47.15.14.01.28.03.42.05.35.04.69.08,1.04.12.17.02.34.04.51.06.31.04.63.08.94.12.11.01.22.03.33.04l1.02-3.46ZM23.39,25.02c.31-.03.62-.06.94-.08.12,0,.24-.02.36-.03.33-.02.66-.04.99-.06.11,0,.21-.01.32-.01.35-.01.7-.02,1.05-.03.1,0,.2,0,.3,0,.32,0,.65,0,.98,0,.12,0,.24,0,.36,0l1.48-5.02h0s-.04,0-.06,0-.04,0-.06,0c-.65.02-1.29.06-1.93.1-.14.01-.28.02-.42.03-.64.06-1.27.12-1.9.21-.11.01-.21.03-.32.05-.31.05-.61.09-.92.14v.02s-1.4,4.71-1.4,4.71c.08-.01.17-.02.25-.02Z"/>
  </g>
</svg>