<?xml version="1.0" encoding="UTF-8"?>
<svg id="Layer_1" xmlns="http://www.w3.org/2000/svg" version="1.1" viewBox="0 0 512 512">
  <!-- Generator: Adobe Illustrator 29.8.1, SVG Export Plug-In . SVG Version: 2.1.1 Build 2)  -->
  <defs>
    <style>
      .st0 {
        fill: #0a0a0c;
      }
    </style>
  </defs>
  <g id="Layer_5">
    <path class="st0" d="M466.86,77.3c-29.29-31.62-70.6-49.67-110.65-48.23-32.45,1.15-67.27,13.04-100.19,28.04-39.02-17.81-71.87-27.04-100.23-28.04-40.08-1.43-81.35,16.61-110.64,48.23C17.96,106.64,4.68,144.14,8.71,180.17c4.13,36.93,27.18,71.63,47.51,102.25,3.82,5.76,7.5,11.34,10.99,16.82-12.99,16.84-11.92,35.71-2.57,47.78,5.98,7.73,15.84,13.08,27.92,13.08,3.29,0,6.76-.44,10.35-1.3-2.19,10.85.43,21.32,6.43,29.06,6.05,7.81,15.95,13.25,27.98,13.24,3.84,0,7.9-.58,12.11-1.79-1.29,10.03,1.5,19.73,7.04,26.88,6.06,7.83,15.92,13.37,27.66,13.37,1.06,0,2.17-.2,3.26-.29-.46,9.52,3.24,18.74,10.89,25.32,5.1,4.38,12.53,7.74,21.13,7.74,7.38,0,15.62-2.47,24.01-8.85.05-.04.12-.1.17-.14,4.28,3.46,7,5.56,11.14,8.66,10.38,7.78,20.32,10.97,29.02,10.97,10.17,0,18.65-4.38,24.17-10.91,5.89-6.98,8.85-16.82,7.24-27.22,3.87,1.03,7.61,1.51,11.16,1.51,12.02,0,21.94-5.44,27.99-13.25,6.01-7.77,8.64-18.3,6.4-29.19,3.46.8,6.82,1.22,10.02,1.22,12.44,0,22.69-5.62,28.93-13.69,6.35-8.2,9.06-19.38,6.47-30.9,2.88.57,5.72.86,8.48.86,12.27,0,23.13-5.3,30.26-13.54,10.07-11.65,13.34-30.9.34-49.35,3.36-5.23,6.92-10.61,10.57-16.09,20.33-30.62,43.38-65.32,47.51-102.25,4.03-36.03-9.24-73.53-36.43-102.87h0ZM77.29,337.23c-6.59-8.52-5.12-23.67,10.46-36.13l12.84-10.34c19.6-15.8,52.39-42.24,69.25-55.35,12.99-10.08,24.62-5.44,30.64,1.61,5.78,6.75,7.73,17.2-.92,25.35-11.49,10.82-58.07,52.12-77.56,67.94-.22.14-4.79,3.8-5.34,4.22-18.13,13.56-32.82,11.14-39.36,2.7ZM121.98,378.06c-6.05-7.82-5.95-21.37,7.65-33.35,19.28-15.32,83.42-72.95,83.83-73.35,11.63-11.11,27.16-9.11,35.45-.75,8.76,8.84,6.68,21.63-5.56,34.2-11.01,11.32-55.06,48.76-76.03,65.55-.29.18-6.47,5.09-7.49,5.85-17.16,12.86-31.38,10.2-37.85,1.85ZM169.11,416.4c-6-7.75-6.46-20.71,5.75-31.6,13.47-10.7,40.46-33.28,60.04-50.5.02-.02.05-.02.07-.04,13.24-12.14,26.91-11.63,33.56-4.81,7.23,7.4,4.59,19.8-6.72,31.59-11.72,12.22-45.96,45.67-58.45,55.02-16.13,12.08-28.53,7.74-34.24.35h0ZM233.71,450.76c-10.53,8.04-19.83,6.16-25,1.71-4.14-3.55-7.34-10.37-3.96-18.43,2.71-1.43,5.44-3.11,8.2-5.18,13.1-9.82,45.85-41.8,58.69-54.99,7.06-1.28,13.23,2.62,16.12,7.2,4.02,6.34,2.79,13.89-3.37,20.69-17.52,19.37-38.85,39.97-50.69,49h0ZM295.69,461.75c-6.59,7.8-18.91,6.79-31.38-2.55-3.12-2.33-5.46-4.13-8.26-6.37,8.35-7.49,18.01-16.89,27.58-26.83,2.09,1.7,3.75,3.01,6.51,5.17,11.37,10.92,11.42,23.63,5.55,30.58ZM432.76,337.4c-8.07,9.32-24.54,11.98-40.45-.95-1.37-1.12-57.39-48.2-57.65-48.43-3.34-2.89-8.39-2.54-11.28.8-2.9,3.34-2.54,8.39.8,11.29.27.23,25.97,22.52,53.49,45.04,15.77,12.94,15.96,27.95,9.33,36.51-6.85,8.85-21.89,11.71-40.02-1.88-.56-.42-5.31-4.17-5.63-4.36-15.43-12.24-38.45-32.48-38.72-32.71-3.3-2.91-8.35-2.6-11.29.72-2.91,3.32-2.59,8.38.73,11.29,1.15,1.01,26.49,23.29,42.14,35.44,13.37,11.93,13.46,25.37,7.43,33.15-6.45,8.36-20.68,11.02-37.86-1.85,0,0-7.45-5.77-9.18-7.17.55-.6,1.12-1.2,1.66-1.8,13.16-14.54,11.24-30.19,5.03-39.99-4.3-6.77-10.84-11.41-18.12-13.55,9.04-16.39,5.76-31.55-3.2-40.71-4.88-4.99-11.58-8.33-19.19-9.32,14.27-19.34,10.62-38.35-.5-49.58-9.21-9.3-24.34-13.95-38.9-10.23-.18-8.32-3.47-16.36-8.74-22.51-11.07-12.95-32.27-19.67-52.61-3.84-16.98,13.19-49.84,39.69-69.47,55.52l-11.71,9.42c-3-4.63-6.09-9.33-9.29-14.16-19.33-29.11-41.24-62.09-44.93-95.18-3.52-31.41,8.24-64.29,32.27-90.22,26.18-28.25,62.87-44.42,98.34-43.11,23.25.82,50.14,7.79,81.77,21.14-20.03,9.98-67.51,36.42-72.84,39.21-24.76,12.98-55.58,29.13-68.82,53.22-7.4,13.46-4.64,22.93-1.02,28.5,7.9,12.16,27.08,16.29,42.51,14.98,19.37-1.63,38.74-9.1,57.46-16.32,23.14-8.93,47.07-18.19,69.95-15.67,14.63,1.6,35.9,19.9,48.6,30.83l2.98,2.57c37.46,32.03,98.5,86.47,109.49,96.57,16.31,15.02,14.2,29.48,7.43,37.31h0ZM487.38,178.39c-3.7,33.09-25.6,66.07-44.93,95.18-2.88,4.34-5.71,8.6-8.44,12.79-15.27-13.88-72.16-64.54-107.77-95l-2.95-2.54c-15.03-12.93-37.74-32.47-57.31-34.6-3.23-.35-6.44-.52-9.64-.52-23.3,0-45.88,8.7-67.8,17.16-18.49,7.13-35.96,13.86-53.05,15.31-11.88,1.02-24.32-2.47-27.75-7.75-1.8-2.77-1.26-6.84,1.62-12.08,10.92-19.86,39.37-34.77,62.23-46.76,5.47-2.86,17.43-9.39,17.43-9.39,47.5-26.66,112.55-63.18,167.75-65.14,35.58-1.26,72.18,14.86,98.35,43.11,24.03,25.93,35.78,58.81,32.26,90.21Z"/>
  </g>
</svg>